# xmcd
#
# Track frame offsets:
#	150
#	10576
#	22088
#	39522
#	50926
#	60281
#	69250
#	85229
#	98565
#	110049
#	127720
#	136679
#	152542
#	162441
#	172648
#	186352
#	196800
#	208551
#	220954
#	237156
#	250705
#	266115
#	278062
#
# Disc length: 3853 seconds
#
# Revision: 13
# Processed by: cddbd v1.5.2PL0 Copyright (c) Steve Scherf et al.
# Submitted via: EasyCDDAExtractor 12.0.7.1
#
DISCID=300f0b17
DTITLE=Byrds - The Byrds [Box Set] cd1
DYEAR=1990
DGENRE=Folk/Rock
TTITLE0=Mr. Tambourine Man
TTITLE1=Ii'll Feel A Whole Lot Better
TTITLE2=Chimes Of Freedom
TTITLE3=She Has A Way
TTITLE4=All I Really Want To Do
TTITLE5=Spanish Harlem Incident
TTITLE6=The Bells Of Rhymney
TTITLE7=It's All Over Now, Baby Blue
TTITLE8=She Don't Care About Time
TTITLE9=Turn! Turn! Turn! (To Everything There Is A Season)
TTITLE10=It Won't Be Wrong
TTITLE11=Lay Done Your Weary Tune
TTITLE12=He Was A Friend Of Mine
TTITLE13=The World Turns All Around Her
TTITLE14=The Day Walk (Never Before)
TTITLE15=The Times They Are A-Changin'
TTITLE16=5D (Fifth Dimension)
TTITLE17=I Know My Rider
TTITLE18=Eight Miles High
TTITLE19=Why
TTITLE20=Psychodrama City
TTITLE21=I See You
TTITLE22=Hey Joe (Where You Gonna Go)
EXTD=Ultimate 4-CD Boxed Set with Booklet\n(Columbia/Legacy CAK 46773, 1990)
EXTT0=
EXTT1=
EXTT2=
EXTT3=
EXTT4=
EXTT5=
EXTT6=
EXTT7=
EXTT8=(Previously Unreleased Alternate Version)
EXTT9=
EXTT10=
EXTT11=
EXTT12=
EXTT13=
EXTT14=
EXTT15=
EXTT16=
EXTT17=
EXTT18=
EXTT19=
EXTT20=
EXTT21=
EXTT22=
PLAYORDER=
